<?xml version="1.0" encoding="iso-8859-1"?>
<!-- Generator: Adobe Illustrator 19.0.0, SVG Export Plug-In . SVG Version: 6.00 Build 0)  -->
<svg version="1.1" id="Layer_1" xmlns="http://www.w3.org/2000/svg" xmlns:xlink="http://www.w3.org/1999/xlink" x="0px" y="0px"
	 viewBox="0 0 512 512" style="enable-background:new 0 0 512 512;" xml:space="preserve">
<path style="fill:#6A5CAF;" d="M511.344,274.266C511.77,268.231,512,262.143,512,256C512,114.615,397.385,0,256,0S0,114.615,0,256
	c0,117.769,79.53,216.949,187.809,246.801L511.344,274.266z"/>
<path style="fill:#423299;" d="M511.344,274.266L314.991,77.913L119.096,434.087l68.714,68.714C209.522,508.787,232.385,512,256,512
	C391.243,512,501.976,407.125,511.344,274.266z"/>
<polygon style="fill:#FFFFFF;" points="278.328,333.913 255.711,77.913 119.096,77.913 119.096,311.652 "/>
<polygon style="fill:#E8E6E6;" points="392.904,311.652 392.904,155.826 337.252,133.565 314.991,77.913 255.711,77.913 
	256.067,333.913 "/>
<polygon style="fill:#FFFFFF;" points="314.991,155.826 314.991,77.913 392.904,155.826 "/>
<rect x="119.096" y="311.652" style="fill:#2CDDE7;" width="273.809" height="122.435"/>
<g>
	<path style="fill:#FFFFFF;" d="M185.381,399.362v-20.585h-21.947v20.585h-13.471v-52.975h13.471v21.796h21.947v-21.796h13.471
		v52.975H185.381z"/>
	<path style="fill:#FFFFFF;" d="M235.865,357.209v42.153h-13.471v-42.153h-15.816v-10.898h45.256v10.898H235.865z"/>
	<path style="fill:#FFFFFF;" d="M305.796,399.362l-0.076-34.434l-12.714,29.136h-8.779l-12.714-29.136v34.434H259.48v-53.051h14.758
		l14.379,31.558l14.378-31.558h14.682v53.051H305.796z"/>
	<path style="fill:#FFFFFF;" d="M366.195,388.086v11.276h-35.947v-52.975h13.471v41.699H366.195z"/>
</g>
<g>
</g>
<g>
</g>
<g>
</g>
<g>
</g>
<g>
</g>
<g>
</g>
<g>
</g>
<g>
</g>
<g>
</g>
<g>
</g>
<g>
</g>
<g>
</g>
<g>
</g>
<g>
</g>
<g>
</g>
</svg>
